<svg xmlns="http://www.w3.org/2000/svg" viewBox="0 0 800 450" role="img" aria-labelledby="title desc">
  <title id="title">Samurai automation system reconstruction</title>
  <desc id="desc">Abstract orchestration diagram with four agents and scheduled services.</desc>
  <rect width="800" height="450" rx="28" fill="#101214"/>
  <g stroke="#596270" stroke-width="4" fill="none"><path d="M400 225L152 110M400 225L648 110M400 225L152 340M400 225L648 340"/></g>
  <g fill="#252a31" stroke="#596270" stroke-width="3">
    <rect x="76" y="52" width="152" height="116" rx="24"/><rect x="572" y="52" width="152" height="116" rx="24"/>
    <rect x="76" y="282" width="152" height="116" rx="24"/><rect x="572" y="282" width="152" height="116" rx="24"/>
  </g>
  <g fill="#9f63ff"><circle cx="152" cy="110" r="25"/><circle cx="648" cy="110" r="25"/><circle cx="152" cy="340" r="25"/><circle cx="648" cy="340" r="25"/></g>
  <circle cx="400" cy="225" r="98" fill="#c8f135"/>
  <path d="M365 225h70M400 190v70" stroke="#101214" stroke-width="18" stroke-linecap="round"/>
  <g fill="#2f6bff"><circle cx="275" cy="167" r="9"/><circle cx="525" cy="167" r="9"/><circle cx="275" cy="283" r="9"/><circle cx="525" cy="283" r="9"/></g>
</svg>
